<?xml version="1.0" encoding="UTF-8" standalone="no"?>
<svg
   xmlns:dc="http://purl.org/dc/elements/1.1/"
   xmlns:cc="http://creativecommons.org/ns#"
   xmlns:rdf="http://www.w3.org/1999/02/22-rdf-syntax-ns#"
   xmlns:svg="http://www.w3.org/2000/svg"
   xmlns="http://www.w3.org/2000/svg"
   xmlns:sodipodi="http://sodipodi.sourceforge.net/DTD/sodipodi-0.dtd"
   xmlns:inkscape="http://www.inkscape.org/namespaces/inkscape"
   aria-hidden="true"
   focusable="false"
   data-prefix="fas"
   data-icon="skull-crossbones"
   class="svg-inline--fa fa-skull-crossbones fa-w-14"
   role="img"
   viewBox="0 0 448 512"
   version="1.1"
   id="svg4"
   sodipodi:docname="skull-crossbones-solid.svg"
   inkscape:version="0.92.3 (2405546, 2018-03-11)">
  <metadata
     id="metadata10">
    <rdf:RDF>
      <cc:Work
         rdf:about="">
        <dc:format>image/svg+xml</dc:format>
        <dc:type
           rdf:resource="http://purl.org/dc/dcmitype/StillImage" />
      </cc:Work>
    </rdf:RDF>
  </metadata>
  <defs
     id="defs8" />
  <sodipodi:namedview
     pagecolor="#ffffff"
     bordercolor="#666666"
     borderopacity="1"
     objecttolerance="10"
     gridtolerance="10"
     guidetolerance="10"
     inkscape:pageopacity="0"
     inkscape:pageshadow="2"
     inkscape:window-width="858"
     inkscape:window-height="480"
     id="namedview6"
     showgrid="false"
     inkscape:zoom="0.4609375"
     inkscape:cx="224"
     inkscape:cy="256"
     inkscape:window-x="0"
     inkscape:window-y="0"
     inkscape:window-maximized="0"
     inkscape:current-layer="svg4" />
  <path
     fill="currentColor"
     d="M439.15 453.06L297.17 384l141.99-69.06c7.9-3.95 11.11-13.56 7.15-21.46L432 264.85c-3.95-7.9-13.56-11.11-21.47-7.16L224 348.41 37.47 257.69c-7.9-3.95-17.51-.75-21.47 7.16L1.69 293.48c-3.95 7.9-.75 17.51 7.15 21.46L150.83 384 8.85 453.06c-7.9 3.95-11.11 13.56-7.15 21.47l14.31 28.63c3.95 7.9 13.56 11.11 21.47 7.15L224 419.59l186.53 90.72c7.9 3.95 17.51.75 21.47-7.15l14.31-28.63c3.95-7.91.74-17.52-7.16-21.47zM150 237.28l-5.48 25.87c-2.67 12.62 5.42 24.85 16.45 24.85h126.08c11.03 0 19.12-12.23 16.45-24.85l-5.5-25.87c41.78-22.41 70-62.75 70-109.28C368 57.31 303.53 0 224 0S80 57.31 80 128c0 46.53 28.22 86.87 70 109.28zM280 112c17.65 0 32 14.35 32 32s-14.35 32-32 32-32-14.35-32-32 14.35-32 32-32zm-112 0c17.65 0 32 14.35 32 32s-14.35 32-32 32-32-14.35-32-32 14.35-32 32-32z"
     id="path2"
     style="fill:#ffffff" />
</svg>
